<?xml version="1.0" standalone="no"?>
<!DOCTYPE svg PUBLIC "-//W3C//DTD SVG 20010904//EN"
 "http://www.w3.org/TR/2001/REC-SVG-20010904/DTD/svg10.dtd">
<svg version="1.0" xmlns="http://www.w3.org/2000/svg"
 width="512.000000pt" height="512.000000pt" viewBox="0 0 512.000000 512.000000"
 preserveAspectRatio="xMidYMid meet">
<metadata>
Created by potrace 1.14, written by Peter Selinger 2001-2017
</metadata>
<g transform="translate(0.000000,512.000000) scale(0.100000,-0.100000)"
fill="#000000" stroke="none">
<path d="M1504 4763 c-6 -10 -10 -62 -9 -115 1 -63 -3 -98 -9 -99 -6 0 -101
-2 -211 -3 -192 -1 -202 -2 -245 -26 -28 -16 -55 -43 -75 -74 l-30 -49 0
-1957 0 -1956 28 -42 c15 -23 46 -54 69 -69 l42 -28 1470 -3 c1139 -2 1481 0
1516 10 59 16 122 79 138 138 10 35 12 476 10 1980 l-3 1935 -27 42 c-15 23
-49 54 -75 70 -48 28 -48 28 -248 30 -110 1 -205 2 -210 2 -7 1 -11 39 -10
103 0 103 -8 128 -40 128 -25 0 -32 -32 -30 -132 l1 -98 -25 -1 c-72 -3 -918
-4 -927 -1 -7 2 -10 40 -9 104 1 73 -3 104 -13 114 -16 16 -22 17 -42 5 -11
-8 -14 -34 -14 -115 0 -58 -3 -106 -6 -107 -3 0 -219 -2 -480 -2 l-476 -2 1
104 c1 75 -3 108 -13 117 -18 19 -35 17 -48 -3z m-14 -292 c3 0 5 -37 6 -81
l0 -80 -33 -11 c-18 -6 -48 -29 -67 -51 -63 -73 -59 -175 9 -241 90 -87 231
-63 285 48 44 91 8 193 -86 240 l-40 20 1 80 0 80 480 0 480 0 1 -80 0 -80
-40 -20 c-22 -11 -54 -37 -70 -58 -27 -34 -31 -47 -31 -101 0 -51 5 -70 27
-103 33 -51 87 -78 155 -77 186 2 237 258 67 338 l-40 19 1 81 0 81 470 1
c259 0 475 -1 480 -3 6 -2 10 -36 10 -81 0 -76 -1 -77 -31 -92 -81 -40 -119
-102 -112 -180 13 -129 143 -201 262 -145 59 28 91 85 91 161 0 54 -4 67 -31
101 -16 21 -48 47 -70 58 l-40 20 1 80 0 80 206 0 206 0 36 -28 c23 -17 40
-41 47 -65 8 -26 10 -608 8 -1964 l-3 -1926 -25 -27 c-55 -59 47 -55 -1542
-55 -1442 0 -1463 0 -1496 20 -18 11 -41 34 -52 52 -20 33 -20 55 -20 1956 0
1755 1 1927 16 1958 17 36 56 69 89 76 17 4 382 3 395 -1z m101 -245 c22 -9
49 -59 49 -91 0 -34 -25 -82 -51 -96 -102 -54 -211 52 -152 151 30 51 86 64
154 36z m1022 3 c51 -23 71 -94 42 -149 -52 -100 -205 -58 -205 55 0 34 27 80
54 94 28 13 80 13 109 0z m1030 0 c51 -23 71 -94 42 -149 -52 -100 -205 -57
-205 57 0 29 22 68 50 90 19 15 81 17 113 2z"/>
<path d="M1250 3516 c-14 -14 -13 -43 2 -52 15 -10 2583 -11 2609 -2 21 8 26
43 7 55 -20 12 -2605 12 -2618 -1z"/>
<path d="M1245 2850 c-16 -49 -71 -47 1315 -47 1387 -1 1331 -3 1315 47 l-6
20 -1309 0 -1309 0 -6 -20z"/>
<path d="M1249 2203 c-6 -6 -8 -21 -4 -33 5 -16 15 -20 48 -21 257 -4 2568 0
2576 5 13 9 14 26 1 46 -8 13 -165 15 -1310 15 -1020 1 -1303 -2 -1311 -12z"/>
<path d="M1245 1540 c-17 -53 -84 -50 1315 -50 1399 0 1332 -3 1315 50 l-6 20
-1309 0 -1309 0 -6 -20z"/>
<path d="M1255 897 c-8 -4 -15 -14 -15 -22 0 -41 -33 -40 1311 -38 706 0 1292
1 1301 2 21 1 34 39 18 55 -13 13 -2591 17 -2615 3z"/>
</g>
</svg>
